<?xml version="1.0" encoding="utf-8"?>
<!-- Generator: Adobe Illustrator 14.0.0, SVG Export Plug-In . SVG Version: 6.00 Build 43363)  -->
<!DOCTYPE svg PUBLIC "-//W3C//DTD SVG 1.1//EN" "http://www.w3.org/Graphics/SVG/1.1/DTD/svg11.dtd">
<svg version="1.1" id="Layer_1" xmlns="http://www.w3.org/2000/svg" xmlns:xlink="http://www.w3.org/1999/xlink" x="0px" y="0px"
	 width="2645.5px" height="639.5px" viewBox="0 0 2645.5 639.5" enable-background="new 0 0 2645.5 639.5" xml:space="preserve">
<g transform="translate(22.5000185, 22.5000185) ">
	<polygon fill="none" stroke="#000000" stroke-width="0.01" points="2.821,9.255 73.688,9.255 73.688,17.759 144.554,17.759 
		144.554,9.255 201.247,9.255 201.247,17.759 257.94,17.759 257.94,9.255 314.632,9.255 314.632,17.759 371.325,17.759 
		371.325,9.255 428.019,9.255 428.019,17.759 484.711,17.759 484.711,9.255 541.405,9.255 541.405,17.759 598.097,17.759 
		598.097,9.255 654.791,9.255 654.791,17.759 711.483,17.759 711.483,9.255 768.176,9.255 768.176,17.759 824.869,17.759 
		824.869,9.255 881.562,9.255 881.562,17.759 938.255,17.759 938.255,9.255 994.948,9.255 994.948,17.759 1065.814,17.759 
		1065.814,9.255 1136.68,9.255 1136.68,65.948 1128.176,65.948 1128.176,122.641 1136.68,122.641 1136.68,179.334 1128.176,179.334 
		1128.176,236.026 1136.68,236.026 1136.68,292.719 1065.814,292.719 1065.814,284.215 994.948,284.215 994.948,292.719 
		938.255,292.719 938.255,284.215 881.562,284.215 881.562,292.719 824.869,292.719 824.869,284.215 768.176,284.215 
		768.176,292.719 711.483,292.719 711.483,284.215 654.791,284.215 654.791,292.719 598.097,292.719 598.097,284.215 
		541.405,284.215 541.405,292.719 484.711,292.719 484.711,284.215 428.019,284.215 428.019,292.719 371.325,292.719 
		371.325,284.215 314.632,284.215 314.632,292.719 257.94,292.719 257.94,284.215 201.247,284.215 201.247,292.719 144.554,292.719 
		144.554,284.215 73.688,284.215 73.688,292.719 2.821,292.719 2.821,236.026 11.325,236.026 11.325,179.334 2.821,179.334 
		2.821,122.641 11.325,122.641 11.325,65.948 2.821,65.948 	"/>
</g>
<g transform="translate(2857.1480185, 376.83101849999997) ">
	<polygon fill="none" stroke="#000000" stroke-width="0.01" points="-509.328,-20.796 -461.138,-20.796 -461.138,-12.292 
		-404.445,-12.292 -404.445,-20.796 -347.753,-20.796 -347.753,-12.292 -291.06,-12.292 -291.06,-20.796 -242.869,-20.796 
		-242.869,35.897 -234.367,35.897 -234.367,92.59 -242.869,92.59 -242.869,149.282 -234.367,149.282 -234.367,205.975 
		-242.869,205.975 -242.869,262.669 -291.06,262.669 -291.06,254.165 -347.753,254.165 -347.753,262.669 -404.445,262.669 
		-404.445,254.165 -461.138,254.165 -461.138,262.669 -509.328,262.669 -509.328,205.975 -517.83,205.975 -517.83,149.282 
		-509.328,149.282 -509.328,92.59 -517.83,92.59 -517.83,35.897 -509.328,35.897 	"/>
</g>
<g transform="translate(22.5000185, 376.83101849999997) ">
	<polygon fill="none" stroke="#000000" stroke-width="0.01" points="6.185,-41.494 68.546,-41.494 68.546,-49.998 139.413,-49.998 
		139.413,-41.494 196.105,-41.494 196.105,-49.998 252.798,-49.998 252.798,-41.494 309.49,-41.494 309.49,-49.998 366.185,-49.998 
		366.185,-41.494 422.877,-41.494 422.877,-49.998 479.57,-49.998 479.57,-41.494 536.263,-41.494 536.263,-49.998 592.956,-49.998 
		592.956,-41.494 649.649,-41.494 649.649,-49.998 706.341,-49.998 706.341,-41.494 763.035,-41.494 763.035,-49.998 
		819.727,-49.998 819.727,-41.494 876.42,-41.494 876.42,-49.998 933.114,-49.998 933.114,-41.494 989.806,-41.494 989.806,-49.998 
		1060.672,-49.998 1060.672,-41.494 1123.035,-41.494 1123.035,6.694 1131.539,6.694 1131.539,63.388 1123.035,63.388 
		1123.035,120.08 1131.539,120.08 1131.539,176.772 1123.035,176.772 1123.035,224.963 1060.672,224.963 1060.672,233.466 
		989.806,233.466 989.806,224.963 933.114,224.963 933.114,233.466 876.42,233.466 876.42,224.963 819.727,224.963 819.727,233.466 
		763.035,233.466 763.035,224.963 706.341,224.963 706.341,233.466 649.649,233.466 649.649,224.963 592.956,224.963 
		592.956,233.466 536.263,233.466 536.263,224.963 479.57,224.963 479.57,233.466 422.877,233.466 422.877,224.963 366.185,224.963 
		366.185,233.466 309.49,233.466 309.49,224.963 252.798,224.963 252.798,233.466 196.105,233.466 196.105,224.963 139.413,224.963 
		139.413,233.466 68.546,233.466 68.546,224.963 6.185,224.963 6.185,176.772 -2.32,176.772 -2.32,120.08 6.185,120.08 
		6.185,63.388 -2.32,63.388 -2.32,6.694 6.185,6.694 	"/>
</g>
<g transform="translate(1439.8240185, 376.83101849999997) ">
	<polygon fill="none" stroke="#000000" stroke-width="0.01" points="-254.998,-34.959 -192.636,-34.959 -192.636,-43.463 
		-121.77,-43.463 -121.77,-34.959 -65.078,-34.959 -65.078,-43.463 -8.385,-43.463 -8.385,-34.959 48.309,-34.959 48.309,-43.463 
		105.002,-43.463 105.002,-34.959 161.694,-34.959 161.694,-43.463 218.387,-43.463 218.387,-34.959 275.08,-34.959 275.08,-43.463 
		331.774,-43.463 331.774,-34.959 388.467,-34.959 388.467,-43.463 445.16,-43.463 445.16,-34.959 501.852,-34.959 501.852,-43.463 
		558.545,-43.463 558.545,-34.959 615.239,-34.959 615.239,-43.463 671.93,-43.463 671.93,-34.959 728.623,-34.959 728.623,-43.463 
		799.49,-43.463 799.49,-34.959 861.852,-34.959 861.852,13.23 870.356,13.23 870.356,69.923 861.852,69.923 861.852,126.615 
		870.356,126.615 870.356,183.308 861.852,183.308 861.852,231.498 799.49,231.498 799.49,240.002 728.623,240.002 728.623,231.498 
		671.93,231.498 671.93,240.002 615.239,240.002 615.239,231.498 558.545,231.498 558.545,240.002 501.852,240.002 501.852,231.498 
		445.16,231.498 445.16,240.002 388.467,240.002 388.467,231.498 331.774,231.498 331.774,240.002 275.08,240.002 275.08,231.498 
		218.387,231.498 218.387,240.002 161.694,240.002 161.694,231.498 105.002,231.498 105.002,240.002 48.309,240.002 48.309,231.498 
		-8.385,231.498 -8.385,240.002 -65.078,240.002 -65.078,231.498 -121.77,231.498 -121.77,240.002 -192.636,240.002 
		-192.636,231.498 -254.998,231.498 -254.998,183.308 -263.502,183.308 -263.502,126.615 -254.998,126.615 -254.998,69.923 
		-263.502,69.923 -263.502,13.23 -254.998,13.23 	"/>
</g>
<path fill="none" stroke="#000000" stroke-width="0.01" d="M2315.906,88.448V31.755h-70.867v8.504h-70.865v-8.504h-56.693v8.504
	h-56.691v-8.504h-56.693v8.504h-56.691v-8.504h-56.693v8.504h-56.693v-8.504h-56.691v8.504h-56.693v-8.504h-56.693v8.504h-56.691
	v-8.504h-56.693v8.504h-56.691v-8.504h-56.693v8.504h-56.693v-8.504h-56.691v8.504h-70.866v-8.504h-70.866v56.693h8.504v56.693
	h-8.504v56.693h8.504v56.693h-8.504v56.693h70.866v-8.504h70.866v8.504h56.691v-8.504h56.693v8.504h56.693v-8.504h56.691v8.504
	h56.693v-8.504h56.691v8.504h56.693v-8.504h56.693v8.504h56.691v-8.504h56.693v8.504h56.693v-8.504h56.691v8.504h56.693v-8.504
	h56.691v8.504h56.693v-8.504h70.865v8.504h70.867v-56.693h-8.504v-56.693h8.504v-56.693h-8.504V88.448H2315.906z M1306.775,213.172
	c-21.918,0-39.686-17.768-39.686-39.686c0-21.917,17.768-39.685,39.686-39.685c21.917,0,39.684,17.768,39.684,39.685
	C1346.457,195.404,1328.691,213.172,1306.775,213.172z M1527.875,213.172c-21.918,0-39.686-17.768-39.686-39.686
	c0-21.917,17.768-39.685,39.686-39.685c21.916,0,39.684,17.768,39.684,39.685C1567.559,195.404,1549.791,213.172,1527.875,213.172z
	 M1748.977,213.172c-21.918,0-39.686-17.768-39.686-39.686c0-21.917,17.768-39.685,39.686-39.685
	c21.916,0,39.686,17.768,39.686,39.685C1788.66,195.404,1770.893,213.172,1748.977,213.172z M1970.078,213.172
	c-21.918,0-39.686-17.768-39.686-39.686c0-21.917,17.768-39.685,39.686-39.685c21.916,0,39.684,17.768,39.684,39.685
	C2009.762,195.404,1991.994,213.172,1970.078,213.172z M2191.18,213.172c-21.918,0-39.686-17.768-39.686-39.686
	c0-21.917,17.768-39.685,39.686-39.685c21.916,0,39.686,17.768,39.686,39.685C2230.863,195.404,2213.096,213.172,2191.18,213.172z"
	/>
<path fill="none" stroke="#000000" stroke-width="0.01" d="M2625.32,153.754V97.061h-8.504V40.368h-48.189v8.504h-56.693v-8.504
	h-56.691v8.504h-56.693v-8.504h-48.188v56.693h-8.504v56.693h8.504v56.693h-8.504v56.693h8.504v56.693h48.188v-8.504h56.693v8.504
	h56.691v-8.504h56.693v8.504h48.189V267.14h8.504v-56.693h-8.504v-56.693H2625.32z M2561.117,223.62c0,0.552-0.447,1-1,1h-40.521
	c-0.553,0-1-0.448-1-1v-83.04c0-0.552,0.447-1,1-1h40.521c0.553,0,1,0.448,1,1V223.62z"/>
</svg>
